# AST/ASF file generated using VICON BodyLanguage
# -----------------------------------------------
:version 1.10
:name VICON
:units
  mass 1.0
  length 0.45
  angle deg
:documentation
   .ast/.asf automatically generated from VICON data using
   VICON BodyBuilder and BodyLanguage model FoxedUp or BRILLIANT.MOD
:root
   order TX TY TZ RX RY RZ
   axis XYZ
   position 0 0 0  
   orientation 0 0 0 
:bonedata
  begin
     id 1 
     name lhipjoint
     direction 0.627457 -0.725269 0.283342 
     length 2.53237 
     axis 0 0 0  XYZ
  end
  begin
     id 2 
     name lfemur
     direction 0.34202 -0.939693 0  
     length 7.32496  
     axis 0 0 20  XYZ
    dof rx ry rz
    limits (-160.0 20.0)
           (-70.0 70.0)
           (-60.0 70.0)
  end
  begin
     id 3 
     name ltibia
     direction 0.34202 -0.939693 0   
     length 7.69674   
     axis 0 0 20   XYZ
    dof rx
    limits (-10.0 170.0)
  end
  begin
     id 4 
     name lfoot
     direction 0.127289 -0.349722 0.928166   
     length 1.8612   
     axis -90 7.62852e-016 20   XYZ
    dof rx rz
    limits (-45.0 90.0)
           (-70.0 20.0)
  end
  begin
     id 5 
     name ltoes
     direction 1.53561e-011 -4.21864e-011 1   
     length 0.925608   
     axis -90 7.62852e-016 20   XYZ
    dof rx
    limits (-90.0 20.0)
  end
  begin
     id 6 
     name rhipjoint
     direction -0.609094 -0.738725 0.288599   
     length 2.48624  
     axis 0 0 0  XYZ 
  end
  begin
     id 7 
     name rfemur
     direction -0.34202 -0.939693 0   
     length 7.44259   
     axis 0 0 -20   XYZ
    dof rx ry rz
    limits (-160.0 20.0)
           (-70.0 70.0)
           (-70.0 60.0)
  end
  begin
     id 8 
     name rtibia
     direction -0.34202 -0.939693 0   
     length 7.7781   
     axis 0 0 -20   XYZ
    dof rx
    limits (-10.0 170.0)
 end
 begin
     id 9 
     name rfoot
     direction -0.107015 -0.294021 0.949789   
     length 2.14741  
     axis -90 -7.62852e-016 -20   XYZ
    dof rx rz
    limits (-45.0 90.0)
           (-20.0 70.0)
  end
  begin
     id 10 
     name rtoes
     direction -1.53497e-011 -4.21924e-011 1   
     length 1.0706   
     axis -90 -7.62852e-016 -20   XYZ
    dof rx
    limits (-90.0 20.0)
  end
  begin
     id 11 
     name lowerback
     direction -0.0142066 0.998112 -0.0597545   
     length 1.86627   
     axis 0 0 0   XYZ
    dof rx ry rz
    limits (-20.0 45.0)
           (-30.0 30.0)
           (-30.0 30.0)
  end
  begin
     id 12 
     name upperback
     direction 0.00547294 0.999744 0.0219437   
     length 1.86272   
     axis 0 0 0   XYZ
    dof rx ry rz
    limits (-20.0 45.0)
           (-30.0 30.0)
           (-30.0 30.0)
  end
  begin
     id 13 
     name thorax
     direction 0.0116162 0.998704 0.0495538   
     length 1.8703   
     axis 0 0 0   XYZ
    dof rx ry rz
    limits (-20.0 45.0)
           (-30.0 30.0)
           (-30.0 30.0)
  end
  begin
     id 14 
     name lowerneck
     direction -0.0106574 0.998739 0.0490586   
     length 1.8074   
     axis 0 0 0   XYZ
    dof rx ry rz
    limits (-20.0 45.0)
           (-30.0 30.0)
           (-30.0 30.0)
  end
  begin
     id 15 
     name upperneck
     direction 0.030527 0.976587 -0.212944   
     length 1.80681   
     axis 0 0 0   XYZ
    dof rx ry rz
    limits (-20.0 45.0)
           (-30.0 30.0)
           (-30.0 30.0)
  end
  begin
     id 16
     name head
     direction 0.00869225 0.997035 -0.0764531  
     length 1.8313  
     axis 0 0 0   XYZ
    dof rx ry rz
    limits (-20.0 45.0)
           (-30.0 30.0)
           (-30.0 30.0)
  end
  begin
     id 17 
     name lclavicle
     direction 0.915958 0.399447 0.0382386  
     length 3.78965  
     axis 0 0 0   XYZ
    dof ry rz
    limits (-20.0 10.0)
           (0.0 20.0)
  end
  begin
     id 18 
     name lhumerus
     direction 1 -4.48967e-011 3.19303e-027   
     length 4.78095   
     axis -180 -30 -90   XYZ
    dof rx ry rz
    limits (-60.0 90.0)
           (-90.0 90.0)
           (-90.0 90.0)
  end
  begin
     id 19
     name lradius
     direction 1 -4.48967e-011 -3.77974e-027   
     length 3.58615   
     axis -180 -30 -90   XYZ
    dof rx
    limits (-10.0 170.0)
  end
  begin
     id 20
     name lwrist
     direction 1 -4.48927e-011 1.2807e-027   
     length 1.79307   
     axis 1.91374e-015 90 90   XYZ
    dof ry
    limits (-180.0 0.0)
 end
  begin
     id 21 
     name lhand
     direction 1 -4.49036e-011 2.5614e-027   
     length 0.659812   
     axis -1.63439e-015 90 90   XYZ
    dof rx rz
    limits (-90.0 90.0)
           (-45.0 45.0)
  end
  begin
     id 22 
     name lfingers
     direction 1 -4.49052e-011 5.1228e-027   
     length 0.531957   
     axis -3.26879e-015 90 90   XYZ
    dof rx
    limits (0.0 90.0)
  end
  begin
     id 23
     name lthumb
     direction 0.707107 -6.35012e-011 0.707107   
     length 0.763787   
     axis -90 45 2.85299e-015   XYZ
    dof rx rz
    limits (-45.0 45.0)
           (-45.0 45.0)
  end
  begin
     id 24 
     name rclavicle
     direction -0.895351 0.435135 0.0948887   
     length 3.70497  
     axis 0 0 0   XYZ 
    dof ry rz
    limits (-10.0 20.0)
           (-20.0 0.0)
  end
  begin
     id 25 
     name rhumerus
     direction -1 -4.48971e-011 2.38946e-027  
     length 4.48913   
     axis -180 30 90   XYZ
    dof rx ry rz
    limits (-90.0 60.0)
           (-90.0 90.0)
           (-90.0 90.0)
  end
  begin
     id 26 
     name rradius
     direction -1 -4.4895e-011 4.38668e-027   
     length 3.7051   
     axis -180 30 90   XYZ
    dof rx
    limits (-10.0 170.0)
  end
  begin
     id 27 
     name rwrist
     direction -1 -4.49007e-011 1.2807e-027   
     length 1.85255   
     axis 1.91374e-015 -90 -90   XYZ
    dof ry
    limits (-180.0 0.0)
  end
  begin
     id 28
     name rhand
     direction -1 -4.48851e-011 2.5614e-027   
     length 0.449136   
     axis -1.63439e-015 -90 -90   XYZ
    dof rx rz
    limits (-90.0 90.0)
           (-45.0 45.0)
  end
  begin
     id 29
     name rfingers
     direction -1 -4.49128e-011 5.1228e-027   
     length 0.362105   
     axis -3.26879e-015 -90 -90   XYZ
    dof rx
    limits (0.0 90.0)
  end
  begin
     id 30
     name rthumb
     direction -0.707107 -6.34851e-011 0.707107   
     length 0.519912   
     axis -90 -45 -2.85299e-015   XYZ
    dof rx rz
    limits (-45.0 45.0)
           (-45.0 45.0)
  end
:hierarchy
  begin
    root lhipjoint rhipjoint lowerback
    lhipjoint lfemur
    lfemur ltibia
    ltibia lfoot
    lfoot ltoes
    rhipjoint rfemur
    rfemur rtibia
    rtibia rfoot
    rfoot rtoes
    lowerback upperback
    upperback thorax
    thorax lowerneck lclavicle rclavicle
    lowerneck upperneck
    upperneck head
    lclavicle lhumerus
    lhumerus lradius
    lradius lwrist
    lwrist lhand lthumb
    lhand lfingers
    rclavicle rhumerus
    rhumerus rradius
    rradius rwrist
    rwrist rhand rthumb
    rhand rfingers
  end

#!OML:ASF I:\Actors\actors\Patient Classification 2\Patient 1\Session 1\actor1.ASF
:FULLY-SPECIFIED
:DEGREES
83
root -1.07727 18.3336 7.80519 8.05511 -2.44838 -1.04384
lowerback -4.81583 0.108766 -0.667634
upperback -3.92489 0.168977 0.559755
thorax -1.33641 0.105044 0.954573
lowerneck -9.11112 -2.84229 -3.3849
upperneck 22.3216 -4.41818 4.57317
head 8.61875 -1.9208 1.66178
rclavicle -1.90864e-015 -9.88954e-015
rhumerus -45.1529 0.21327 -88.1567
rradius 39.3054
rwrist 20.4681
rhand -6.09423 -35.7909
rfingers 7.12502
rthumb 19.7418 -64.8084
lclavicle -1.90864e-015 -9.88954e-015
lhumerus -41.2016 4.08302 88.2209
lradius 36.2043
lwrist -9.62862
lhand -3.95619 -29.1853
lfingers 7.12502
lthumb 21.796 -0.392668
rfemur -12.771 -0.267847 14.8761
rtibia 23.0829
rfoot -23.1311 -2.12004
rtoes -1.58777
lfemur -18.3386 -6.38074 -11.8096
ltibia 33.8058
lfoot -27.5596 9.03511
ltoes -54.5751
84
root -1.07766 18.3332 7.80584 8.04547 -2.46509 -1.05153
lowerback -4.78808 0.124573 -0.66798
upperback -3.94284 0.189928 0.557515
thorax -1.37081 0.11574 0.953102
lowerneck -9.12982 -2.82273 -3.37548
upperneck 22.3461 -4.39595 4.58584
head 8.62961 -1.90772 1.66668
rclavicle -4.34997e-015 -1.49089e-016
rhumerus -45.4172 0.362811 -88.3012
rradius 39.6861
rwrist 20.146
rhand -5.77041 -35.8981
rfingers 7.12502
rthumb 20.053 -64.8833
lclavicle -4.34997e-015 -1.49089e-016
lhumerus -41.2613 4.10283 88.2181
lradius 36.3181
lwrist -9.47267
lhand -3.80402 -29.0845
lfingers 7.12502
lthumb 21.9421 -0.308867
rfemur -12.7625 -0.241693 14.8856
rtibia 23.0873
rfoot -23.1532 -2.14112
rtoes -1.76876
lfemur -18.318 -6.39212 -11.805
ltibia 33.8038
lfoot -27.5295 9.07347
ltoes -54.4938
85
root -1.07847 18.3328 7.80701 8.04035 -2.477 -1.05404
lowerback -4.76063 0.138757 -0.657783
upperback -3.97106 0.208271 0.540734
thorax -1.41548 0.124794 0.930666
lowerneck -9.11884 -2.79801 -3.40842
upperneck 22.3692 -4.37459 4.66418
head 8.63692 -1.89254 1.70123
rclavicle 1.28899e-015 -9.06955e-015
rhumerus -45.8267 0.61833 -88.5445
rradius 40.2999
rwrist 19.6635
rhand -5.52379 -36.2981
rfingers 7.12502
rthumb 20.2901 -65.2583
lclavicle 1.28899e-015 -9.06955e-015
lhumerus -41.337 4.18694 88.1567
lradius 36.465
lwrist -9.21783
lhand -3.48334 -29.009
lfingers 7.12502
lthumb 22.25 -0.269795
rfemur -12.753 -0.206613 14.8892
rtibia 23.087
rfoot -23.1947 -2.13931
rtoes -1.75519
lfemur -18.3023 -6.3845 -11.8044
ltibia 33.8033
lfoot -27.5317 9.05621
ltoes -54.4924
86
root -1.07922 18.333 7.80822 8.04519 -2.49487 -1.04698
lowerback -4.73622 0.156052 -0.646235
upperback -4.00405 0.230624 0.510868
thorax -1.46335 0.135671 0.894155
lowerneck -9.0653 -2.78136 -3.43898
upperneck 22.3398 -4.36544 4.75065
head 8.6191 -1.88327 1.7371
rclavicle 3.55793e-015 1.98785e-015
rhumerus -46.3287 1.06467 -88.914
rradius 41.1183
rwrist 18.7958
rhand -4.65589 -37.3802
rfingers 7.12502
rthumb 21.124 -66.2495
lclavicle 3.55793e-015 1.98785e-015
lhumerus -41.4493 4.25739 88.0855
lradius 36.6125
lwrist -9.0911
lhand -3.38458 -28.9934
lfingers 7.12502
lthumb 22.3448 -0.265589
rfemur -12.7559 -0.157054 14.8785
rtibia 23.0815
rfoot -23.2043 -2.16919
rtoes -1.70896
lfemur -18.299 -6.38012 -11.8133
ltibia 33.8037
lfoot -27.575 9.05514
ltoes -54.5614
87
root -1.07933 18.3333 7.80927 8.04247 -2.49992 -1.03617
lowerback -4.68396 0.175331 -0.634635
upperback -4.03788 0.25549 0.479566
thorax -1.52764 0.147845 0.856082
lowerneck -9.02516 -2.78392 -3.43497
upperneck 22.2864 -4.3777 4.79245
head 8.59486 -1.88567 1.7495
rclavicle 1.61513e-015 -4.42296e-015
rhumerus -46.9412 1.75637 -89.4236
rradius 42.1471
rwrist 17.3546
rhand -9.36908 -36.0865
rfingers 7.12502
rthumb 16.5911 -65.3973
lclavicle 1.61513e-015 -4.42296e-015
lhumerus -41.6358 4.15165 88.1325
lradius 36.8862
lwrist -8.95709
lhand -3.62239 -28.8257
lfingers 7.12502
lthumb 22.1165 -0.0705996
rfemur -12.7593 -0.132377 14.8643
rtibia 23.0864
rfoot -23.1942 -2.19468
rtoes -1.72858
lfemur -18.2876 -6.41767 -11.8288
ltibia 33.7988
lfoot -27.598 9.14668
ltoes -54.6158
88
root -1.07936 18.3334 7.81114 8.03267 -2.49724 -1.02634
lowerback -4.6377 0.195814 -0.647717
upperback -4.04801 0.282914 0.467121
thorax -1.56441 0.161911 0.851306
lowerneck -9.08147 -2.79989 -3.42443
upperneck 22.2635 -4.39675 4.78139
head 8.59797 -1.89409 1.74119
rclavicle -8.9919e-016 -8.15017e-015
rhumerus -47.7454 2.74444 -90.0014
rradius 43.5759
rwrist 15.6885
rhand -8.74141 -36.472
rfingers 7.12502
rthumb 17.1953 -65.7311
lclavicle -8.9919e-016 -8.15017e-015
lhumerus -41.9438 3.61207 88.4822
lradius 37.5162
lwrist -8.27703
lhand -4.10415 -28.2372
lfingers 7.12502
lthumb 21.6539 0.571948
rfemur -12.7529 -0.136163 14.8525
rtibia 23.1005
rfoot -23.2004 -2.18299
rtoes -1.69127
lfemur -18.266 -6.45442 -11.8439
ltibia 33.7891
lfoot -27.5953 9.20789
ltoes -54.6099
89
root -1.07957 18.3334 7.81343 8.03656 -2.49058 -1.01615
lowerback -4.62557 0.210211 -0.678422
upperback -4.0187 0.303004 0.464
thorax -1.5415 0.172441 0.865957
lowerneck -9.21127 -2.80434 -3.44698
upperneck 22.2015 -4.40341 4.82967
head 8.60286 -1.89268 1.75871
rclavicle -7.20905e-015 -6.5102e-015
rhumerus -48.6677 4.07326 -90.6773
rradius 45.3253
rwrist 13.7245
rhand -2.66839 -39.1021
rfingers 7.12502
rthumb 23.0322 -67.7459
lclavicle -7.20905e-015 -6.5102e-015
lhumerus -42.4062 2.47682 89.1906
lradius 38.6246
lwrist -6.73692
lhand -5.28323 -27.796
lfingers 7.12502
lthumb 20.5213 1.13944
rfemur -12.7516 -0.14853 14.84
rtibia 23.1136
rfoot -23.197 -2.18284
rtoes -1.77782
lfemur -18.263 -6.44733 -11.8553
ltibia 33.7805
lfoot -27.5899 9.17483
ltoes -54.597
90
root -1.07995 18.333 7.81555 8.0518 -2.42873 -0.982379
lowerback -4.62796 0.195678 -0.727719
upperback -3.96029 0.285141 0.449552
thorax -1.47978 0.163939 0.878331
lowerneck -9.35725 -2.79632 -3.46272
upperneck 22.0284 -4.40361 4.94609
head 8.57406 -1.88168 1.79799
rclavicle -4.91837e-015 -3.67752e-015
rhumerus -49.6837 5.93053 -91.798
rradius 47.3132
rwrist 10.2424
rhand -2.31567 -39.4037
rfingers 7.12502
rthumb 23.3706 -68.0048
lclavicle -4.91837e-015 -3.67752e-015
lhumerus -42.9734 0.896933 90.1136
lradius 40.1448
lwrist -4.40949
lhand -7.01884 -27.7439
lfingers 7.12502
lthumb 18.8527 1.36245
rfemur -12.7488 -0.195706 14.8102
rtibia 23.1232
rfoot -23.2101 -2.17903
rtoes -1.84892
lfemur -18.2891 -6.42984 -11.883
ltibia 33.7765
lfoot -27.5696 9.14103
ltoes -54.6846
91
root -1.07991 18.3319 7.81875 8.07804 -2.34172 -0.945442
lowerback -4.65743 0.174775 -0.766341
upperback -3.90315 0.258652 0.431641
thorax -1.404 0.150742 0.880976
lowerneck -9.43957 -2.784 -3.40181
upperneck 21.7913 -4.39173 4.98182
head 8.50772 -1.8684 1.79873
rclavicle -2.56091e-015 4.57205e-015
rhumerus -50.9406 8.1585 -93.2831
rradius 49.7018
rwrist 5.43757
rhand -4.31565 -39.6479
rfingers 7.12502
rthumb 21.4508 -68.4803
lclavicle -2.56091e-015 4.57205e-015
lhumerus -43.6604 -0.850477 91.0853
lradius 42.0637
lwrist -1.48396
lhand -8.18777 -27.1287
lfingers 7.12502
lthumb 17.7282 2.0832
rfemur -12.7461 -0.233381 14.7786
rtibia 23.1257
rfoot -23.2681 -2.15065
rtoes -1.62203
lfemur -18.3328 -6.4193 -11.911
ltibia 33.7779
lfoot -27.5254 9.11679
ltoes -54.7409
92
root -1.07849 18.3313 7.82398 8.11561 -2.30525 -0.956087
lowerback -4.73213 0.184297 -0.72467
upperback -3.83757 0.270476 0.421282
thorax -1.29473 0.154928 0.847821
lowerneck -9.46866 -2.78101 -3.29196
upperneck 21.5291 -4.38189 4.92916
head 8.42028 -1.86205 1.7618
rclavicle -3.99899e-015 7.00716e-015
rhumerus -52.2925 10.1037 -94.3233
rradius 52.5054
rwrist 2.45897
rhand -3.92542 -39.7771
rfingers 7.12502
rthumb 21.8256 -68.5663
lclavicle -3.99899e-015 7.00716e-015
lhumerus -44.5282 -2.72509 92.0693
lradius 44.4942
lwrist 2.02062
lhand -8.29391 -25.7268
lfingers 7.12502
lthumb 17.626 3.49423
rfemur -12.7598 -0.278137 14.787
rtibia 23.1226
rfoot -23.2818 -2.10129
rtoes -1.42813
lfemur -18.3669 -6.45285 -11.8966
ltibia 33.7812
lfoot -27.5265 9.10501
ltoes -54.6677
